<svg width="16" height="16" viewBox="0 0 16 16" fill="none" xmlns="http://www.w3.org/2000/svg">
<path d="M0 2.88C0 1.28942 1.28942 0 2.88 0H13.12C14.7106 0 16 1.28942 16 2.88V13.12C16 14.7106 14.7106 16 13.12 16H2.88C1.28942 16 0 14.7106 0 13.12V2.88Z" fill="black"/>
<path d="M5.6 12.16V4.24727H8.72182C9.32197 4.24727 9.83326 4.36189 10.2557 4.59114C10.6781 4.8178 11.0001 5.13333 11.2216 5.53773C11.4457 5.93955 11.5577 6.40318 11.5577 6.92864C11.5577 7.45409 11.4444 7.91773 11.2177 8.31955C10.9911 8.72136 10.6627 9.03432 10.2325 9.25841C9.80492 9.4825 9.2872 9.59455 8.67932 9.59455H7.27295V8.25386H8.40886C8.73083 8.25386 8.99614 8.19848 9.20477 8.08773C9.41599 7.97439 9.57311 7.81856 9.67614 7.62023C9.78174 7.41932 9.83455 7.18879 9.83455 6.92864C9.83455 6.66591 9.78174 6.43667 9.67614 6.24091C9.57311 6.04258 9.41599 5.88932 9.20477 5.78114C8.99356 5.67038 8.72568 5.615 8.40114 5.615H7.27295V12.16H5.6Z" fill="white"/>
</svg>
