<svg width="1250" height="1250" viewBox="0 0 1250 1250" fill="none" xmlns="http://www.w3.org/2000/svg">
<path d="M1177.29 344.362C1425.24 821.895 989.379 1360.7 469.771 1229.17C236.519 1171.16 49.0194 968.954 10.2122 731.617C-33.9055 495.506 72.7122 241.83 272.059 108.251C545.343 -79.6573 924.019 -17.1574 1119.69 251.634C1120.91 252.859 1120.51 254.902 1118.87 256.127C1117.65 257.352 1115.6 256.944 1114.38 255.31C1087.42 220.588 1056.78 189.134 1023.28 160.947C968.137 113.97 903.594 77.2054 835.376 52.2871C488.153 -73.5299 107.026 135.62 31.0455 498.774C-54.7388 905.637 291.258 1280.23 703.84 1224.26C1022.06 1184.23 1258.58 890.522 1232.43 571.078C1226.72 493.872 1206.29 417.483 1172.39 347.222C1171.57 345.996 1172.39 344.362 1173.61 343.545C1174.84 342.728 1176.47 343.137 1177.29 344.362Z" fill="black"/>
<mask id="mask0_710_2274" style="mask-type:alpha" maskUnits="userSpaceOnUse" x="38" y="39" width="1197" height="1197">
<circle cx="636.033" cy="637.033" r="598.033" fill="#D9D9D9"/>
</mask>
<g mask="url(#mask0_710_2274)">
<path d="M961.882 1130.76C959.137 1132.73 956 1134.69 953.255 1136.65C950.118 1138.61 947.373 1140.57 944.235 1142.14C941.49 1143.71 939.137 1145.27 936.392 1146.84C936 1147.24 935.608 1147.24 935.216 1147.63C926.196 1153.12 916.784 1158.22 907.373 1162.92C904.628 1164.49 901.49 1166.06 898.745 1167.24C898.745 1167.24 898.353 1167.63 897.961 1167.63C894.824 1169.2 891.686 1170.76 888.549 1172.33C882.275 1175.47 875.608 1178.22 869.333 1180.96C866.196 1182.53 862.667 1183.71 859.529 1184.88C856.392 1186.06 852.863 1187.63 849.726 1188.8C846.588 1189.98 843.059 1191.55 839.922 1192.73C839.922 1192.73 839.922 1192.73 839.529 1192.73C836.392 1193.9 832.863 1195.08 829.726 1196.25C822.667 1198.61 815.216 1200.96 808.157 1203.31C805.804 1204.1 803.059 1204.88 800.706 1205.67C793.255 1208.02 785.804 1209.98 778.353 1211.55C775.608 1212.33 772.863 1212.73 769.726 1213.51C762.667 1215.08 755.216 1216.65 748.157 1218.22C746.588 1218.61 745.412 1218.61 743.843 1219C741.49 1219.39 738.745 1219.78 736.392 1220.18C732.863 1220.57 729.726 1221.35 726.196 1221.74C724.628 1222.14 723.059 1222.14 721.49 1222.53C719.529 1222.92 717.177 1223.31 714.824 1223.31C708.549 1224.1 701.882 1224.88 695.608 1225.67C693.647 1226.06 691.294 1226.06 689.333 1226.45H688.941C686.196 1226.84 683.451 1226.84 680.706 1227.24C677.961 1227.63 675.216 1227.63 672.471 1227.63C670.902 1227.63 668.941 1228.02 667.373 1228.02C664.235 1228.02 661.49 1228.41 658.745 1228.41C654.824 1228.41 651.294 1228.8 647.373 1228.8C643.451 1228.8 639.922 1228.8 636 1228.8C633.255 1228.8 630.51 1228.8 627.765 1228.8C462.275 1226.45 313.647 1156.25 207.373 1044.88C207.373 1044.88 207.373 1044.49 206.98 1044.49C195.216 1033.9 205.412 977.431 252.863 941.745C312.471 896.647 455.216 868.412 455.216 868.412C455.216 868.412 510.51 859.392 715.608 902.137C835.608 927.235 926.98 963.706 977.961 1062.53C988.549 1082.92 999.137 1114.29 961.882 1130.76Z" fill="white"/>
<path d="M716.785 897.823C792.079 913.118 872.471 929.588 934.432 979.392C955.216 996.255 968.942 1020.96 980.314 1044.88C985.804 1056.65 991.295 1068.8 995.608 1081.75C997.961 1090.37 1001.49 1100.18 999.53 1110.37C999.138 1113.12 996.785 1116.65 994.824 1118.61C985.804 1127.63 976 1133.12 966.197 1140.18C908.55 1180.18 842.275 1208.41 773.648 1223.31C620.706 1256.65 455.216 1230.76 320.706 1150.37C276.001 1123.31 234.824 1090.37 199.53 1051.55C195.608 1046.84 195.608 1039 195.608 1033.9C196.001 1022.14 199.138 1010.76 203.059 1000.18C212.471 975.863 224.628 951.549 245.412 934.686C260.314 924.49 276.393 915.863 292.863 908.804C344.628 886.843 399.138 871.549 455.216 865.274C459.922 864.882 460.706 871.549 456.001 872.333C402.275 883.314 348.942 899.784 299.138 922.137C281.099 931.157 261.883 939 247.373 953.118C233.648 968.02 223.844 986.451 216.001 1005.27C210.903 1016.65 207.373 1034.69 208.942 1043.71C233.648 1073.12 262.667 1099 294.04 1121.35C465.804 1241.35 726.589 1249.2 909.334 1149.2C925.804 1140.18 941.883 1129.98 957.177 1119.39C964.628 1114.29 972.471 1109.98 978.353 1104.1C978.746 1103.71 978.353 1104.1 978.353 1104.49C978.353 1104.88 977.961 1105.27 977.961 1105.27C978.353 1100.57 976.785 1094.29 974.824 1088.02C967.765 1065.27 956.393 1041.35 944.236 1020.57C925.02 989.588 892.471 969.98 859.53 954.294C836.785 943.706 812.863 935.471 788.549 927.627C764.236 919.784 739.53 913.118 714.824 907.235C708.55 905.667 710.51 896.647 716.785 897.823Z" fill="black"/>
<path d="M1015.61 1186.45C1008.16 1128.41 975.215 1030.76 955.215 1004.49C933.254 975.862 924.234 966.843 850.901 942.137C846.979 922.529 832.469 873.117 815.215 852.333C788.94 812.725 717.175 803.705 695.607 808.411C695.607 808.411 579.528 767.627 445.803 767.627C403.45 777.039 354.43 796.254 327.764 836.647C309.724 863.313 330.117 871.941 321.097 896.254C318.744 902.529 263.842 933.901 241.489 952.725C231.293 960.96 219.92 981.745 212.077 1008.8C196.391 1064.1 213.254 1140.57 193.646 1207.23C155.999 1335.86 79.5283 1374.29 79.5283 1374.29H1092.86C1092.08 1373.9 1031.69 1308.8 1015.61 1186.45Z" fill="white"/>
<path d="M1009.73 1187.24C1001.88 1135.86 986.196 1084.88 966.196 1037.04C956.392 1013.9 941.49 991.549 920.706 977.824C910.118 971.157 898.353 966.059 886.196 960.961C874.039 956.255 861.49 951.941 849.333 947.628C847.372 946.843 845.804 945.275 845.412 943.314C843.843 935.471 841.882 928.02 839.529 920.177C829.333 888.412 818.353 853.118 788.549 834.687C765.804 820.961 738.745 814.294 712.471 813.118C707.373 813.118 701.882 813.118 697.176 813.902H695.608C695.216 813.902 694.431 813.902 694.039 813.51C675.216 804.49 654.431 799 634.039 793.51C572.863 779.392 508.941 773.51 446.196 773.118C407.765 782.138 354.039 803.314 330.51 842.53C326.588 848.804 324.627 855.079 325.412 862.138C326.196 869.981 328.941 878.608 326.98 886.843C326.196 890.373 325.412 894.294 323.843 897.432C320.706 901.745 315.608 904.49 311.686 907.236C291.294 920.569 270.51 932.334 250.902 946.059C244.235 950.765 237.961 955.079 233.255 961.745C219.529 981.353 211.294 1004.88 207.765 1028.41C201.49 1076.26 207.765 1124.88 201.49 1172.73C194.431 1220.57 176 1266.84 150.118 1307.63C132.078 1335.08 110.118 1360.57 82.2745 1378.22L79.5294 1367.24H1092.86L1088.55 1377.04C1076.78 1363.71 1067.37 1349.2 1058.75 1333.9C1032.08 1289.2 1016.39 1238.61 1009.73 1187.24ZM1021.49 1185.67C1025.8 1219 1034.04 1251.94 1046.59 1283.31C1059.14 1314.29 1074.82 1344.49 1096.78 1369.98C1099.92 1373.51 1097.18 1380.18 1092.47 1379.78H79.1372C76 1379.78 73.2549 1377.04 73.2549 1373.9C73.2549 1371.55 74.4314 1369.59 76.3921 1368.8C82.6666 1365.27 88.9412 1360.18 94.8235 1355.08C146.196 1308.8 178.353 1240.18 188.941 1171.94C197.961 1108.02 181.098 1039 209.725 978.216C216.392 964.098 224.627 949.196 237.961 940.177C262.274 922.138 288.941 908.804 312.863 891.157C313.255 891.157 313.255 890.765 313.255 890.765C312.863 891.157 312.471 891.941 312.471 892.334C314.824 886.843 315.608 882.138 314.824 875.863C313.647 868.02 311.686 857.432 314.431 849.196C315.608 844.491 317.961 840.177 320.314 836.647C348.549 794.294 398.353 775.471 445.804 764.883C459.137 765.275 472.863 762.922 486.196 762.922C504.627 762.922 523.451 765.667 541.882 768.02C594.823 776.255 645.804 790.373 697.961 801.745L694.431 801.353C706.588 799 717.961 800.177 729.725 801.745C805.02 813.118 830.51 846.059 850.902 916.255C853.255 924.098 855.216 931.941 857.176 940.177L853.255 935.471C890.902 948.804 933.255 960.961 957.176 995.863C965.804 1006.45 972.078 1019 977.569 1031.55C997.569 1081.75 1013.25 1132.33 1021.49 1185.67Z" fill="black"/>
<path d="M397.57 928.413C426.589 990.374 471.687 1042.92 525.413 1084.49C527.374 1086.06 525.413 1089.2 523.06 1088.02C475.217 1065.28 434.825 1026.45 410.903 979.394C403.06 963.707 396.393 946.844 394.04 929.197C393.256 927.237 396.393 926.452 397.57 928.413Z" fill="black"/>
<path d="M856.785 941.353C857.962 1006.84 831.295 1073.9 780.315 1116.26C779.138 1117.43 777.569 1117.04 776.393 1115.86C775.217 1114.69 775.609 1113.12 776.785 1111.94C788.158 1100.96 799.53 1089.59 808.158 1076.26C826.197 1050.37 837.177 1019.78 842.275 988.804C844.628 973.51 846.197 957.04 845.02 941.745C844.628 934.295 856.393 933.51 856.785 941.353Z" fill="black"/>
<path d="M625.804 1097.04C616.784 1128.8 609.333 1163.31 613.647 1196.26C614.823 1203.71 603.451 1205.67 601.882 1197.82C599.921 1179.78 602.274 1162.14 605.411 1144.88C608.941 1127.63 613.255 1111.16 619.137 1094.69C620.706 1090.77 627.372 1092.73 625.804 1097.04Z" fill="black"/>
<path d="M750.51 1091.16C763.451 1119 772.471 1148.02 779.53 1177.43C780.314 1180.57 778.353 1183.71 775.216 1184.49C772.079 1185.27 768.941 1183.31 768.157 1180.18C764.236 1158.22 759.138 1136.26 752.079 1114.69C749.726 1107.63 747.373 1100.57 744.628 1093.51C743.059 1089.98 748.549 1087.24 750.51 1091.16Z" fill="black"/>
<path d="M329.333 894.687C343.843 973.903 399.529 1040.96 466.588 1083.71C489.333 1098.22 513.647 1110.77 538.745 1120.96C540.313 1121.75 541.098 1123.31 540.313 1124.88C539.921 1126.45 537.96 1127.24 536.784 1126.45C510.902 1117.04 485.803 1105.28 462.274 1091.16C414.431 1062.92 372.47 1023.71 344.235 975.863C329.725 951.157 318.352 925.275 312.862 897.04C312.078 892.334 315.215 888.02 319.921 887.236C324.235 886.059 328.941 889.589 329.333 894.687Z" fill="black"/>
<path d="M602.273 1204.88C591.293 1203.71 583.45 1193.51 585.803 1182.53L590.116 1161.75C591.685 1153.51 599.528 1147.63 607.763 1148.8C615.999 1149.59 622.665 1156.65 622.665 1165.27V1186.45C623.058 1197.43 613.646 1206.06 602.273 1204.88Z" fill="black"/>
<path d="M783.059 1190.37C772.471 1194.29 761.098 1188.02 758.353 1177.04L753.255 1156.26C751.294 1148.02 755.608 1139.78 763.843 1136.65C771.686 1133.9 780.706 1137.43 784.235 1144.88L793.647 1164.1C798.353 1174.69 793.647 1186.84 783.059 1190.37Z" fill="black"/>
<path d="M964.235 1178.61C964.235 1178.61 986.196 1301.75 977.569 1373.9" stroke="black" stroke-width="5.1257" stroke-miterlimit="10" stroke-linecap="round" stroke-linejoin="round"/>
<path d="M452.077 880.57C446.587 864.883 444.234 848.805 445.41 832.334C445.41 830.766 446.587 829.981 448.155 829.981C449.332 829.981 450.508 831.158 450.508 832.334C451.685 847.236 455.998 862.53 463.057 875.472C466.587 883.315 454.822 888.413 452.077 880.57Z" fill="black"/>
<path d="M717.175 901.354C706.195 876.648 679.136 864.099 655.214 855.471C640.312 850.765 623.842 847.236 608.156 844.883C570.116 839.001 516.391 829.981 478.352 826.059C477.96 826.059 477.96 825.275 478.352 825.275C489.332 824.099 500.312 824.099 511.293 824.099C544.234 824.883 577.175 828.412 609.724 833.51C642.273 838.608 677.175 848.412 701.881 871.942C709.724 880.177 716.783 889.589 718.744 900.961C719.136 902.138 717.567 902.53 717.175 901.354Z" fill="black"/>
<path d="M753.646 1002.14C745.41 1042.53 692.077 1066.84 602.273 1030.37C508.94 992.726 468.548 902.922 458.352 876.255C513.646 772.726 475.214 700.961 475.214 700.961C602.665 689.981 714.038 839 714.038 839L731.293 912.726C732.861 919 735.999 924.491 740.704 928.412C748.94 942.922 758.744 976.255 753.646 1002.14Z" fill="white"/>
<path d="M456.392 877.431C463.843 866.059 468.549 852.726 471.686 839.784C477.569 812.726 479.529 785.275 479.922 757.824V747.627C478.745 737.431 475.216 726.843 471.294 717.431C466.196 704.882 484.628 697.039 490.51 709.588C491.294 711.157 491.294 713.902 491.294 715.471C492.471 768.804 494.824 837.431 461.098 881.745C458.745 884.098 454.039 880.569 456.392 877.431Z" fill="black"/>
<path d="M718.352 838.216C724.234 841.746 726.195 846.452 726.979 851.158C729.332 860.569 728.548 870.766 730.901 880.569C732.862 889.981 738.744 899.001 740.313 908.805C742.273 919.001 748.156 940.569 750.509 951.158C751.293 953.511 749.724 956.256 746.979 956.648C745.411 957.04 744.234 956.648 743.058 955.864C737.96 951.55 735.607 947.236 732.47 941.746C727.372 932.334 723.842 923.707 720.705 913.118C717.96 903.707 719.136 893.511 716.783 883.707C714.822 874.295 709.332 865.275 707.371 855.471C706.195 850.765 705.803 845.667 709.332 839.785C711.685 837.432 715.607 836.648 718.352 838.216Z" fill="black"/>
<path d="M746.589 941.746C671.687 937.824 610.51 914.295 550.902 808.021C601.098 852.334 660.314 869.197 722.667 877.04L730.902 913.118C732.471 919.393 741.883 937.824 746.589 941.746Z" fill="black"/>
<path d="M743.453 927.236C756.786 952.334 764.629 983.707 756.394 1011.55C750.119 1031.16 732.08 1045.67 712.472 1051.16C666.982 1063.31 614.433 1044.1 574.041 1022.53C524.237 994.687 487.374 948.02 463.845 897.04C462.276 893.118 467.766 889.981 470.119 893.903C478.355 910.373 487.766 926.452 498.355 940.962C508.943 955.864 521.1 969.589 534.825 981.746C574.825 1017.82 628.943 1040.18 683.061 1040.18C738.747 1038.61 759.923 1009.2 746.982 955.079C745.021 946.452 741.884 937.432 737.57 929.981C735.217 926.844 741.1 923.315 743.453 927.236Z" fill="black"/>
<path d="M895.215 456.255C902.274 489.196 905.803 515.863 886.588 603.706C867.764 691.157 913.646 709.196 805.019 849.196C760.705 906.451 653.254 890.372 566.195 831.157C536.784 811.157 524.235 759.784 502.274 723.313C485.019 694.686 477.176 724.49 454.431 699.784C423.45 666.059 386.195 598.215 404.627 478.215C434.431 283.706 588.548 260.961 702.666 282.529C817.568 304.49 876.392 369.588 895.215 456.255Z" fill="white"/>
<path d="M474.039 734.686C465.019 719.392 453.255 706.059 442.274 691.941C431.686 677.432 423.059 661.353 416 644.883C369.333 530.373 387.372 369.196 501.882 301.745C549.333 274.294 606.588 267.628 659.921 271.941C774.039 280.177 878.745 332.726 903.451 453.51C916.784 506.843 898.745 561.745 888.549 613.902C883.843 639.785 887.764 666.451 887.372 693.118C886.98 720.177 879.529 747.235 869.333 772.333C863.059 789.588 852.078 804.883 840.706 819C821.882 841.745 803.059 864.883 779.137 882.53C773.647 886.451 763.843 888.412 757.176 889.196C738.745 891.941 720.706 892.726 702.274 891.549C630.117 888.412 552.862 853.51 523.843 783.706C522.666 780.961 526.588 779 528.157 781.353C565.804 840.961 634.823 870.373 703.451 874.294C724.627 875.471 746.196 875.079 766.98 870.765C777.176 865.667 786.196 856.647 794.823 848.412C816 827.235 837.568 804.49 852.862 778.608C871.294 743.706 881.49 705.667 878.353 666.059C877.568 648.412 877.176 629.981 880.706 612.333C883.843 594.686 887.764 577.824 890.117 559.785C892.47 542.53 893.647 524.883 893.647 507.628C891.686 457.039 875.215 404.883 843.059 365.667C772.078 277.432 604.235 254.294 509.725 314.686C450.117 351.549 422.274 420.569 413.255 487.628C399.529 568.02 403.451 647.235 467.372 705.667L486.196 725.275C493.647 733.902 480.313 744.098 474.039 734.686Z" fill="black"/>
<path d="M520.312 609.98C520.312 609.98 508.155 551.156 450.9 558.215C401.488 564.489 384.233 682.921 496.39 715.862" fill="white"/>
<path d="M491.294 664.49C482.274 659.392 476 650.765 475.608 640.176C476 632.333 477.176 623.314 475.216 615.471C474.039 608.02 466.196 606.059 460.314 606.451C454.039 607.627 450.118 615.471 448.941 621.745C448.941 622.137 448.549 623.314 448.549 623.706C448.157 625.667 445.02 625.667 444.235 623.706C439.137 608.412 450.51 591.549 466.98 593.51C490.118 595.078 493.255 619.392 488.941 637.823C486.588 645.667 489.725 652.725 494.039 659.392L494.824 660.569C496.784 662.922 493.647 666.059 491.294 664.49Z" fill="black"/>
<path d="M805.018 568.412C810.901 596.255 821.881 622.137 835.607 646.451C847.763 676.255 816.391 704.49 788.548 703.314C785.411 703.314 785.018 699 787.763 698.216C805.411 692.726 821.489 680.961 824.234 662.922C825.411 657.432 823.842 652.726 821.097 648.02C808.156 623.706 800.312 595.863 802.273 568.412C802.273 566.451 805.018 566.451 805.018 568.412Z" fill="black"/>
<path d="M518.353 610.373C509.333 587.235 489.725 565.275 463.451 565.667C461.098 565.275 457.176 566.059 454.823 566.059C448.156 566.451 442.666 568.804 437.568 573.51C412.47 598.608 416.784 642.922 437.176 670.765C444.235 680.569 453.254 689.196 463.451 696.255C473.647 703.314 485.019 708.804 497.176 713.51C499.921 714.294 498.745 718.608 496 718.216C469.725 712.726 444.627 699.784 427.372 678.216C400.705 646.059 395.215 592.333 426.98 560.961C434.039 554.686 443.843 549.98 453.647 549.98C456.784 549.98 461.49 549.196 464.627 549.98C481.098 550.765 496.784 559 506.98 571.941C516 582.922 521.098 596.255 522.666 609.588C522.666 611.941 519.137 612.726 518.353 610.373Z" fill="black"/>
<path d="M766.194 740.96C766.586 747.235 761.88 758.215 753.252 766.058C708.939 739 688.939 753.117 688.939 753.117C673.252 729.196 676.782 696.647 714.821 721.353C741.096 738.607 757.566 741.353 766.194 740.96Z" fill="black"/>
<path d="M752.861 766.451C743.449 774.686 729.331 779.784 710.116 771.941C701.096 768.411 694.037 761.352 688.547 753.509C688.939 753.509 708.547 739.392 752.861 766.451Z" fill="white"/>
<path d="M773.645 739.784C773.645 739.784 757.174 748.804 714.822 721.745C664.233 689.196 674.429 757.431 710.116 771.941C747.37 787.235 766.586 753.902 766.194 741.353" stroke="black" stroke-width="3" stroke-miterlimit="10" stroke-linecap="round" stroke-linejoin="round"/>
<path d="M688.941 753.509C688.941 753.509 708.941 739.392 753.255 766.451" stroke="black" stroke-width="3" stroke-miterlimit="10" stroke-linecap="round" stroke-linejoin="round"/>
<path d="M658.746 608.411C649.334 608.019 642.275 600.176 643.06 590.764L643.452 579.784C643.844 570.372 651.687 563.313 661.099 564.098C670.51 564.49 677.569 572.333 676.785 581.745L676.393 592.725C676.001 601.745 668.158 608.804 658.746 608.411Z" fill="black"/>
<path d="M823.842 614.294C815.215 613.902 808.548 606.451 808.94 597.823L809.332 587.627C809.725 579 817.176 572.333 825.803 572.725C834.43 573.118 841.097 580.569 840.705 589.196L840.313 599.392C839.921 608.02 832.47 614.686 823.842 614.294Z" fill="black"/>
<path d="M694.04 587.235C681.099 578.607 666.981 572.725 651.295 575.862C646.197 576.647 641.099 578.215 637.962 581.745C636.785 583.313 634.04 582.921 634.04 580.568C634.432 572.725 641.099 567.627 647.373 564.49C659.53 558.215 676.393 559.392 687.373 567.627C691.295 569.98 704.628 584.49 697.569 587.627C696.001 588.411 695.217 588.019 694.04 587.235Z" fill="black"/>
<path d="M806.196 589.196C806.196 572.726 826.588 566.843 839.137 572.726C846.196 575.863 851.294 582.137 853.255 589.588C854.039 591.941 850.51 593.902 848.941 591.941C842.275 584.098 830.902 580.177 821.883 584.882C819.137 586.451 818.745 587.628 817.961 589.196C817.961 597.039 806.588 596.647 806.196 589.196Z" fill="black"/>
<path d="M712.863 522.529C721.098 525.274 729.334 517.823 727.765 508.804C726.981 504.098 725.02 499.392 721.098 495.863C709.334 485.274 660.706 475.863 631.295 489.588C605.412 502.137 675.216 509.98 712.863 522.529Z" fill="black"/>
<path d="M830.12 528.804C823.453 531.157 816.394 524.098 817.571 515.863C817.963 511.549 819.532 507.236 822.669 504.098C832.081 494.687 864.237 487.236 884.63 501.745C902.277 513.902 860.708 517.432 830.12 528.804Z" fill="black"/>
<path d="M926.98 396.254C953.646 373.117 992.862 338.215 952.47 289.588C912.078 240.96 837.568 259.784 837.568 259.784C837.568 259.784 853.254 215.078 809.725 199C757.176 179.784 608.156 237.823 608.156 237.823C597.176 237.431 586.588 237.039 576.784 237.039C448.156 234.294 410.901 315.47 409.333 388.411C409.333 388.411 365.803 402.921 354.823 472.333C351.294 494.686 347.764 523.313 356.392 557.823C379.529 651.941 441.882 717.431 481.49 750.764C496.392 739.784 470.117 724.49 472.078 706.451C386.98 664.882 405.411 564.098 450.901 558.215C485.803 553.901 504.235 574.294 512.862 590.764C516.392 595.47 469.333 333.117 740.705 419C794.431 435.862 849.725 450.764 887.372 423.705C891.686 431.941 894.431 441.745 895.215 456.254C895.215 456.254 960.705 430.764 950.901 404.098C947.764 395.078 926.98 396.254 926.98 396.254Z" fill="black"/>
<path d="M827.767 659C827.767 659 832.473 685.667 863.453 699C871.296 702.137 879.531 697.039 879.531 688.412C879.139 688.412 829.727 662.137 827.767 659Z" fill="black"/>
<path d="M585.413 659C585.413 659 599.923 691.941 643.452 699.784C686.982 708.019 726.59 676.647 745.021 624.098C745.021 624.098 730.119 672.725 670.511 681.745C611.688 691.549 585.413 659 585.413 659Z" fill="black"/>
<path d="M753.651 585.667C752.474 641.745 707.376 686.843 652.866 686.843C598.357 686.843 554.827 641.745 554.827 585.667C555.219 529.196 600.317 482.922 655.611 482.922C710.906 482.922 755.219 529.196 753.651 585.667Z" stroke="black" stroke-width="3" stroke-miterlimit="10" stroke-linecap="round" stroke-linejoin="round"/>
<path d="M807.374 572.725C813.649 522.137 846.59 482.529 885.413 482.529C927.374 482.529 959.531 528.804 957.178 585.274C954.825 641.353 919.531 686.451 878.354 686.451C863.06 686.451 849.335 680.569 837.962 669.98" stroke="black" stroke-width="3" stroke-miterlimit="10" stroke-linecap="round" stroke-linejoin="round"/>
<path d="M556.002 574.687H500.315" stroke="black" stroke-width="3" stroke-miterlimit="10" stroke-linecap="round" stroke-linejoin="round"/>
<path d="M754.041 574.686C754.041 574.686 800.708 556.647 806.59 574.686" stroke="black" stroke-width="3" stroke-miterlimit="10" stroke-linecap="round" stroke-linejoin="round"/>
</g>
</svg>
